#!OML:ASF X:\für Bonn\!DataBase\2005_08_10_Bjorn_Final\c3d\bjorn.ASF
:FULLY-SPECIFIED
:DEGREES
186
root 1.04586 19.4578 1.62373 -168.614 -2.69354 -178.814
lowerback -2.26688 0.18879 8.83208
upperback 4.22038 -0.316726 -0.620006
thorax 5.67922 0.181125 -5.6422
lowerneck -10.1481 -2.12217 1.12192
upperneck 11.3397 -2.90337 -1.86105
head 5.02782 -1.53876 -0.97401
rclavicle -1.68967e-015 -1.68967e-014
rhumerus 73.3904 4.89246 -58.1388
rradius 19.1534
rwrist 30.3471
rhand -10.7155 8.23404
rfingers 7.12502
rthumb 15.2946 -21.1804
lclavicle -1.68967e-015 -1.68967e-014
lhumerus 74.6979 -8.01146 59.5621
lradius 14.5697
lwrist -33.1667
lhand -28.6466 -10.491
lfingers 7.12502
lthumb -2.01045 19.4792
rfemur -20.4941 -18.743 19.888
rtibia 30.8021
rfoot -12.6707 18.2352
rtoes -18.3101
lfemur -19.1978 13.0576 -18.4031
ltibia 31.5721
lfoot -10.5983 -17.8781
ltoes 7.76841
187
root 1.05688 19.3913 1.60852 -169.18 -2.70482 -178.625
lowerback -1.88813 0.164488 8.92014
upperback 4.26056 -0.328578 -0.592906
thorax 5.50417 0.167423 -5.6613
lowerneck -10.1332 -2.17557 0.979189
upperneck 11.4096 -2.97517 -1.71014
head 5.05049 -1.57074 -0.909841
rclavicle 8.49804e-015 1.98785e-016
rhumerus 73.417 5.01481 -57.5737
rradius 19.1007
rwrist 29.7615
rhand -10.7056 8.05861
rfingers 7.12502
rthumb 15.3041 -21.3551
lclavicle 8.49804e-015 1.98785e-016
lhumerus 74.8201 -8.04099 59.5956
lradius 14.4946
lwrist -33.3012
lhand -28.3197 -10.4496
lfingers 7.12502
lthumb -1.6947 19.5234
rfemur -19.6996 -19.0524 19.9709
rtibia 30.7542
rfoot -13.6753 18.6194
rtoes -17.8087
lfemur -18.4732 12.9837 -18.0412
ltibia 31.6552
lfoot -11.7913 -17.8491
ltoes 8.33418
188
root 1.06784 19.3286 1.59386 -169.697 -2.69095 -178.452
lowerback -1.5438 0.150662 8.98056
upperback 4.29931 -0.327795 -0.560083
thorax 5.34931 0.159605 -5.65819
lowerneck -10.3423 -2.22228 0.851145
upperneck 11.6518 -3.03746 -1.59803
head 5.16383 -1.60079 -0.864755
rclavicle 1.49089e-016 -1.17283e-014
rhumerus 73.4339 5.12851 -57.1325
rradius 19.0325
rwrist 29.2647
rhand -10.6344 7.94545
rfingers 7.12502
rthumb 15.3727 -21.4631
lclavicle 1.49089e-016 -1.17283e-014
lhumerus 74.8346 -8.06969 59.8418
lradius 14.4916
lwrist -33.637
lhand -27.9715 -10.4141
lfingers 7.12502
lthumb -1.35837 19.5614
rfemur -18.9895 -19.2462 20.0298
rtibia 30.7483
rfoot -14.4563 18.9216
rtoes -16.9055
lfemur -17.8016 12.9294 -17.7337
ltibia 31.7209
lfoot -12.8296 -17.7364
ltoes 9.22038
189
root 1.07824 19.2749 1.57959 -170.107 -2.69585 -178.251
lowerback -1.31926 0.146467 9.07802
upperback 4.33795 -0.325956 -0.526837
thorax 5.26389 0.157705 -5.67653
lowerneck -10.7017 -2.2729 0.714425
upperneck 11.955 -3.10633 -1.45708
head 5.3224 -1.6317 -0.81276
rclavicle 1.98785e-015 8.54774e-015
rhumerus 73.4324 5.21612 -56.7847
rradius 19.0198
rwrist 28.7181
rhand -10.4845 7.83376
rfingers 7.12502
rthumb 15.517 -21.5636
lclavicle 1.98785e-015 8.54774e-015
lhumerus 74.8898 -8.14445 59.8424
lradius 14.4873
lwrist -33.7542
lhand -27.6605 -10.3981
lfingers 7.12502
lthumb -1.05805 19.579
rfemur -18.4183 -19.598 20.169
rtibia 30.7768
rfoot -15.1802 19.3143
rtoes -16.4587
lfemur -17.2573 12.856 -17.4255
ltibia 31.7654
lfoot -13.5926 -17.5838
ltoes 10.7607
190
root 1.08692 19.2322 1.56508 -170.414 -2.66844 -178.062
lowerback -1.25608 0.157436 9.15728
upperback 4.35448 -0.313702 -0.498908
thorax 5.24873 0.16473 -5.69069
lowerneck -10.7671 -2.31179 0.584001
upperneck 12.1136 -3.16314 -1.30273
head 5.38707 -1.65587 -0.750768
rclavicle 1.4064e-014 1.8487e-014
rhumerus 73.358 5.30708 -56.8246
rradius 18.9712
rwrist 28.4954
rhand -10.3055 7.83384
rfingers 7.12502
rthumb 15.6894 -21.5501
lclavicle 1.4064e-014 1.8487e-014
lhumerus 74.8823 -8.27405 59.6952
lradius 14.478
lwrist -33.6594
lhand -27.4064 -10.3852
lfingers 7.12502
lthumb -0.812592 19.593
rfemur -17.9949 -20.0836 20.3271
rtibia 30.8147
rfoot -15.8449 19.786
rtoes -16.559
lfemur -16.8255 12.8074 -17.1754
ltibia 31.8006
lfoot -14.1923 -17.3858
ltoes 12.2481
191
root 1.09409 19.2034 1.55062 -170.617 -2.64684 -177.918
lowerback -1.32117 0.185355 9.19127
upperback 4.39033 -0.290941 -0.464705
thorax 5.32898 0.180387 -5.67307
lowerneck -10.8575 -2.36555 0.444367
upperneck 12.2255 -3.2318 -1.18269
head 5.44102 -1.68778 -0.698668
rclavicle -5.36719e-015 9.93923e-016
rhumerus 73.2946 5.36267 -56.9383
rradius 18.9311
rwrist 28.3022
rhand -10.1016 7.81955
rfingers 7.12502
rthumb 15.8858 -21.5488
lclavicle -5.36719e-015 9.93923e-016
lhumerus 74.7866 -8.44956 59.5967
lradius 14.5657
lwrist -33.5896
lhand -27.2016 -10.4387
lfingers 7.12502
lthumb -0.614781 19.5402
rfemur -17.6967 -20.3345 20.4305
rtibia 30.8476
rfoot -16.208 20.1413
rtoes -15.7634
lfemur -16.5185 12.7393 -17.0082
ltibia 31.8298
lfoot -14.7577 -17.0809
ltoes 12.7689
192
root 1.09972 19.1865 1.53741 -170.781 -2.64313 -177.794
lowerback -1.42496 0.20345 9.24014
upperback 4.4329 -0.284597 -0.455526
thorax 5.43617 0.191022 -5.69162
lowerneck -10.9037 -2.40915 0.330177
upperneck 12.3235 -3.29513 -1.03475
head 5.48351 -1.71401 -0.640784
rclavicle 4.32357e-015 2.47487e-014
rhumerus 73.1947 5.42995 -57.1375
rradius 18.9178
rwrist 28.0394
rhand -9.88844 7.81517
rfingers 7.12502
rthumb 16.0911 -21.5368
lclavicle 4.32357e-015 2.47487e-014
lhumerus 74.6771 -8.7165 59.052
lradius 14.6702
lwrist -33.0262
lhand -27.2103 -10.4904
lfingers 7.12502
lthumb -0.623169 19.4884
rfemur -17.45 -20.4812 20.5192
rtibia 30.8723
rfoot -16.4718 20.3695
rtoes -15.0984
lfemur -16.2711 12.6478 -16.8756
ltibia 31.8552
lfoot -15.3152 -16.6823
ltoes 12.0565
193
root 1.10475 19.1785 1.52414 -170.903 -2.59836 -177.698
lowerback -1.55887 0.251583 9.27164
upperback 4.47081 -0.238341 -0.461402
thorax 5.56226 0.222471 -5.71402
lowerneck -10.8778 -2.45885 0.242444
upperneck 12.3809 -3.36773 -0.913968
head 5.50028 -1.74566 -0.594841
rclavicle 4.57205e-015 -2.11706e-014
rhumerus 73.0309 5.48533 -57.4595
rradius 18.8733
rwrist 27.8559
rhand -9.71794 7.85846
rfingers 7.12502
rthumb 16.2553 -21.4801
lclavicle 4.57205e-015 -2.11706e-014
lhumerus 74.6208 -9.1012 58.2199
lradius 14.7126
lwrist -32.0692
lhand -27.28 -10.5534
lfingers 7.12502
lthumb -0.690563 19.4252
rfemur -17.2421 -20.5374 20.5725
rtibia 30.877
rfoot -16.5168 20.5444
rtoes -14.2155
lfemur -16.0808 12.5859 -16.7884
ltibia 31.8819
lfoot -15.8537 -16.2226
ltoes 10.4697
194
root 1.11016 19.1779 1.51229 -170.976 -2.56493 -177.626
lowerback -1.73933 0.282292 9.25509
upperback 4.51227 -0.218657 -0.453359
thorax 5.71373 0.239746 -5.69629
lowerneck -10.8598 -2.49533 0.122936
upperneck 12.4473 -3.4196 -0.779557
head 5.5223 -1.76782 -0.538121
rclavicle -5.76476e-015 -1.88845e-014
rhumerus 72.8575 5.60386 -57.7975
rradius 18.839
rwrist 27.645
rhand -9.65012 7.88954
rfingers 7.12502
rthumb 16.3206 -21.4437
lclavicle -5.76476e-015 -1.88845e-014
lhumerus 74.6279 -9.48858 57.1364
lradius 14.6591
lwrist -30.8741
lhand -27.4585 -10.6136
lfingers 7.12502
lthumb -0.862933 19.3644
rfemur -17.1042 -20.4765 20.6211
rtibia 30.8724
rfoot -16.4617 20.5986
rtoes -13.5359
lfemur -15.9534 12.5161 -16.7296
ltibia 31.9045
lfoot -16.3394 -15.7552
ltoes 8.28433
195
root 1.11459 19.1829 1.5007 -171.009 -2.53267 -177.558
lowerback -1.97308 0.332388 9.26641
upperback 4.56032 -0.178503 -0.465784
thorax 5.9072 0.271544 -5.71492
lowerneck -10.8221 -2.54041 0.0588713
upperneck 12.4857 -3.48876 -0.665676
head 5.53087 -1.7971 -0.497496
rclavicle -1.78906e-015 -2.34566e-014
rhumerus 72.6215 5.70144 -58.2742
rradius 18.7808
rwrist 27.5966
rhand -9.60809 7.91646
rfingers 7.12502
rthumb 16.361 -21.4134
lclavicle -1.78906e-015 -2.34566e-014
lhumerus 74.651 -9.92795 56.0651
lradius 14.6035
lwrist -29.7714
lhand -27.6294 -10.6685
lfingers 7.12502
lthumb -1.02796 19.3088
rfemur -17.0126 -20.3787 20.6817
rtibia 30.8538
rfoot -16.2723 20.5569
rtoes -12.825
lfemur -15.8819 12.4477 -16.6761
ltibia 31.9225
lfoot -16.6657 -15.2826
ltoes 6.02116
196
root 1.11947 19.1933 1.48988 -171.027 -2.4872 -177.524
lowerback -2.19725 0.376693 9.21638
upperback 4.59579 -0.140561 -0.471437
thorax 6.08027 0.298187 -5.69142
lowerneck -10.755 -2.55427 0.0342383
upperneck 12.5245 -3.51682 -0.597908
head 5.53329 -1.80833 -0.474028
rclavicle -3.37934e-015 -8.74653e-015
rhumerus 72.3062 5.85264 -58.8116
rradius 18.7142
rwrist 27.6382
rhand -9.66814 7.96466
rfingers 7.12502
rthumb 16.3032 -21.37
lclavicle -3.37934e-015 -8.74653e-015
lhumerus 74.6415 -10.3739 54.9524
lradius 14.5626
lwrist -28.6041
lhand -27.7176 -10.7624
lfingers 7.12502
lthumb -1.1132 19.2144
rfemur -16.9407 -20.2706 20.7086
rtibia 30.8227
rfoot -16.0286 20.525
rtoes -12.3085
lfemur -15.836 12.3873 -16.6481
ltibia 31.9336
lfoot -16.905 -14.8592
ltoes 3.57675
197
root 1.12399 19.2061 1.47881 -171.008 -2.43203 -177.489
lowerback -2.47332 0.435152 9.17679
upperback 4.63853 -0.0885389 -0.489417
thorax 6.294 0.334956 -5.68592
lowerneck -10.7156 -2.56402 0.0377975
upperneck 12.5919 -3.54561 -0.522995
head 5.549 -1.81815 -0.453718
rclavicle 4.22417e-015 -1.59028e-015
rhumerus 71.9259 5.98179 -59.3428
rradius 18.6746
rwrist 27.7191
rhand -9.74676 8.01428
rfingers 7.12502
rthumb 16.2275 -21.3266
lclavicle 4.22417e-015 -1.59028e-015
lhumerus 74.6524 -10.8112 54.0143
lradius 14.4927
lwrist -27.7861
lhand -27.7784 -10.7553
lfingers 7.12502
lthumb -1.17187 19.2213
rfemur -16.9113 -20.0404 20.7436
rtibia 30.7813
rfoot -15.7003 20.3786
rtoes -11.6553
lfemur -15.8258 12.3362 -16.6031
ltibia 31.9327
lfoot -16.9508 -14.5897
ltoes 1.92414
